<svg width="23" height="20" viewBox="0 0 24 21" fill="none" xmlns="http://www.w3.org/2000/svg">
<path d="M22.8334 7.74999H17.6442L12.8992 0.643324C12.6934 0.339991 12.3467 0.188324 12 0.188324C11.6534 0.188324 11.3067 0.339991 11.1009 0.654157L6.35587 7.74999H1.16671C0.570874 7.74999 0.083374 8.23749 0.083374 8.83332C0.083374 8.93082 0.0942073 9.02832 0.126707 9.12582L2.87837 19.1683C3.12754 20.0783 3.96171 20.75 4.95837 20.75H19.0417C20.0384 20.75 20.8725 20.0783 21.1325 19.1683L23.8842 9.12582L23.9167 8.83332C23.9167 8.23749 23.4292 7.74999 22.8334 7.74999ZM12 3.19999L15.0334 7.74999H8.96671L12 3.19999ZM19.0417 18.5833L4.96921 18.5942L2.58587 9.91666H21.425L19.0417 18.5833ZM12 12.0833C10.8084 12.0833 9.83337 13.0583 9.83337 14.25C9.83337 15.4417 10.8084 16.4167 12 16.4167C13.1917 16.4167 14.1667 15.4417 14.1667 14.25C14.1667 13.0583 13.1917 12.0833 12 12.0833Z" fill="white"/>
</svg>
