<?xml version="1.0" standalone="no"?>
<!DOCTYPE svg PUBLIC "-//W3C//DTD SVG 20010904//EN"
 "http://www.w3.org/TR/2001/REC-SVG-20010904/DTD/svg10.dtd">
<svg version="1.0" xmlns="http://www.w3.org/2000/svg"
 width="20px" height="50px" viewBox="0 0 20.000000 33.000000"
 preserveAspectRatio="xMidYMid meet">

<g transform="translate(0.000000,33.000000) scale(0.100000,-0.100000)"
fill="#000000" stroke="none">
<path d="M101 320 c-19 -11 -9 -45 14 -45 13 0 21 8 23 21 3 23 -17 37 -37 24z"/>
<path d="M42 240 c-39 -18 -43 -22 -40 -52 4 -42 28 -50 28 -9 0 21 5 31 15
31 11 0 14 -7 10 -22 -11 -50 -35 -170 -35 -179 0 -5 7 -9 14 -9 10 0 19 20
27 60 6 33 15 60 18 60 19 0 31 -29 31 -73 0 -70 24 -57 28 15 2 40 -1 58 -13
68 -8 7 -15 23 -15 37 0 23 1 23 22 9 24 -17 68 -22 68 -8 0 5 -16 16 -35 25
-19 9 -35 21 -35 26 0 11 -28 41 -38 41 -4 0 -26 -9 -50 -20z"/>
</g>
</svg>
