<?xml version="1.0" encoding="utf-8"?>
<svg width="100px" height="118px" viewBox="0 0 100 118" version="1.1" xmlns:xlink="http://www.w3.org/1999/xlink" xmlns="http://www.w3.org/2000/svg">
  <desc>Created with Lunacy</desc>
  <g id="icons8_user">
    <g id="Group" transform="translate(0 80.69412)">
      <path d="M0 34.1398C0.816252 15.1767 16.4957 0 35.6575 0L60.4864 0C79.6482 0 95.3308 15.1767 96.1439 34.1398L0 34.1398L0 34.1398Z" transform="translate(1.585949 1.551809)" id="Shape" fill="#B6DCFE" stroke="none" />
      <g id="Group">
        <path d="M37.2434 0L62.0724 0C82.6401 0 99.3158 16.6757 99.3158 37.2434L0 37.2434C0 16.6757 16.6757 0 37.2434 0ZM96.0725 34.1398C94.499 16.7626 79.853 3.10362 62.0724 3.10362L37.2434 3.10362C19.4628 3.10362 4.81682 16.7626 3.24329 34.1398L96.0725 34.1398Z" id="Shape" fill="#4788C7" fill-rule="evenodd" stroke="none" />
      </g>
    </g>
    <g id="Group" transform="translate(34.13977 65.17596)">
      <path d="M13.9663 24.8289C3.97574 24.8289 0.592791 18.3082 0 16.9582L0 0L27.9326 0L27.9326 16.9582C27.3491 18.2927 23.9692 24.8289 13.9663 24.8289L13.9663 24.8289Z" transform="translate(1.551809 1.551807)" id="Shape" fill="#EEEEEE" stroke="none" />
      <g id="Group">
        <path d="M0 0L31.0362 0L31.0362 18.8141C31.0362 18.8141 27.7277 27.9326 15.5181 27.9326C3.30846 27.9326 0 18.8141 0 18.8141L0 0ZM27.9326 18.1717L27.9326 3.10362L3.10362 3.10362L3.10362 18.1655C3.8609 19.6863 7.04522 24.8289 15.5181 24.8289C24.0158 24.8289 27.1846 19.6863 27.9326 18.1717Z" id="Shape" fill="#4788C7" fill-rule="evenodd" stroke="none" />
      </g>
    </g>
    <g id="Group" transform="translate(18.62177 40.34702)">
      <g id="Group" transform="translate(1.55181 1.548713)">
        <path d="M0 4.36058C0 8.7522 3.61572 14.6336 7.31523 14.6336C11.3499 14.6336 14.6274 11.3499 14.6274 7.31523C14.6274 3.28053 11.3499 0 7.31523 0C1.22593 0 0 1.66975 0 4.36058ZM44.3414 7.31833C44.3414 11.3499 47.6188 14.6336 51.6535 14.6336C55.353 14.6336 58.9687 8.7522 58.9687 4.36368C58.9687 1.67285 57.7459 0.00309896 51.6535 0.00309896C47.6219 0.00309896 44.3414 3.28673 44.3414 7.31833Z" id="Shape" fill="#DFF0FE" fill-rule="evenodd" stroke="none" />
      </g>
      <g id="Group">
        <path d="M0 5.91239C0 1.01488 3.96953 0 8.86704 0C13.7645 0 17.7341 3.97263 17.7341 8.87014C17.7341 13.7677 13.7645 17.7372 8.86704 17.7372C3.96953 17.7372 0 10.8099 0 5.91239ZM53.2053 0C48.3078 0 44.3383 3.96953 44.3383 8.86704C44.3383 13.7646 48.3078 17.7341 53.2053 17.7341C58.1028 17.7341 62.0724 10.8068 62.0724 5.90929C62.0724 1.01488 58.1028 0 53.2053 0ZM14.6305 8.86704C14.6305 5.68894 12.0451 3.10362 8.86703 3.10362C3.10362 3.10362 3.10362 4.59646 3.10362 5.9093C3.10362 9.74226 6.33449 14.6305 8.86703 14.6305C12.0451 14.6305 14.6305 12.0452 14.6305 8.86704ZM58.9687 5.9124C58.9687 4.59646 58.9687 3.10362 53.2053 3.10362C50.0272 3.10362 47.4419 5.68894 47.4419 8.87015C47.4419 12.0483 50.0272 14.6336 53.2053 14.6336C55.7379 14.6336 58.9687 9.74226 58.9687 5.9124Z" id="Shape" fill="#4788C7" fill-rule="evenodd" stroke="none" />
      </g>
    </g>
    <g id="Group" transform="translate(24.82898 13.6218)">
      <g id="Group" transform="translate(1.551809 1.551808)">
        <path d="M23.2771 63.9687C21.4026 63.9687 19.6397 63.2921 18.181 62.0134L17.8986 61.7651L17.5386 61.672C7.21281 59.0525 0 49.7851 0 39.1397L0 10.2823C0 4.61198 4.61198 0 10.2792 0L36.272 0C41.9392 0 46.5543 4.61198 46.5543 10.2823L46.5543 39.1397C46.5543 49.7851 39.3415 59.0525 29.0157 61.672L28.6557 61.7651L28.3733 62.0134C26.9146 63.2921 25.1517 63.9687 23.2771 63.9687L23.2771 63.9687Z" id="Shape" fill="#EEEEEE" stroke="none" />
      </g>
      <g id="Group">
        <path d="M11.831 0L37.8238 0C44.36 0 49.6579 5.29788 49.6579 11.8341L49.6579 40.6915C49.6579 52.2898 41.694 62.001 30.9462 64.7291C29.3075 66.1691 27.1815 67.0723 24.829 67.0723C22.4764 67.0723 20.3504 66.1691 18.7117 64.7291C7.96389 62.001 0 52.2898 0 40.6915L0 11.8341C0 5.29788 5.29788 0 11.831 0ZM46.5543 11.8341C46.5543 7.02038 42.6375 3.10362 37.8238 3.10362L11.8341 3.10362C7.02039 3.10362 3.10362 7.02038 3.10362 11.8341L3.10362 40.6915C3.10362 50.6262 9.83537 59.2729 19.4752 61.7217L20.1984 61.9048L20.7601 62.3982C21.5764 63.1152 22.942 63.9687 24.829 63.9687C26.716 63.9687 28.0815 63.1152 28.8978 62.3983L29.4596 61.9048L30.1827 61.7217C39.8225 59.2729 46.5543 50.6262 46.5543 40.6915L46.5543 11.8341Z" id="Shape" fill="#4788C7" fill-rule="evenodd" stroke="none" />
      </g>
    </g>
    <g id="Group" transform="translate(18.62177 0)">
      <path d="M52.7615 49.6579L52.7615 38.7952C52.7615 27.5105 43.3482 21.4708 42.9448 21.2194L41.7095 20.4435L40.856 21.6322C40.5922 21.9984 34.2795 30.5924 20.6391 30.5924C17.0699 30.5924 6.20724 30.5924 6.20724 41.8988L6.20724 49.6579L5.65169 49.6579C4.29851 46.6101 0 36.213 0 27.3491C0 10.9899 11.2258 0 27.9326 0C39.8474 0 43.4258 8.02285 43.5717 8.36425L43.9783 9.30465L45.0025 9.31085C50.1886 9.31085 58.9688 12.9173 58.9688 26.4273C58.9688 34.5681 54.602 46.2687 53.2643 49.6579L52.7615 49.6579L52.7615 49.6579Z" transform="translate(1.55181 1.55181)" id="Shape" fill="#B6DCFE" stroke="none" />
      <g id="Group">
        <path d="M0 28.8978C0 12.3555 11.4244 0 29.4844 0C42.6654 0 46.5543 9.31086 46.5543 9.31086C53.1433 9.31086 62.0724 13.9601 62.0724 27.9791C62.0724 37.9635 55.8651 52.7615 55.8651 52.7615L52.7615 52.7615L52.7615 40.347C52.7615 29.7916 43.6741 24.0841 43.6741 24.0841C43.6741 24.0841 36.871 33.696 22.1909 33.696C15.5926 33.696 9.31086 35.1702 9.31086 43.4507L9.31086 52.7615L6.20724 52.7615C6.20724 52.7615 0 39.8567 0 28.8978ZM43.6896 10.5057C43.5686 10.2326 40.2943 3.10362 29.4844 3.10362C13.7056 3.10362 3.10362 13.4697 3.10362 28.8978C3.10362 34.1677 4.68336 40.0118 6.20724 44.4252L6.20724 43.4507C6.20724 34.9188 11.5858 30.5924 22.1909 30.5893C35.1143 30.5893 41.0795 22.374 41.1385 22.2902L42.8362 19.8942L45.3222 21.4553C45.7536 21.7284 55.8651 28.215 55.8651 40.347L55.8651 43.6307C57.3952 38.8356 58.9688 32.7463 58.9688 27.9791C58.9688 16.4895 52.2805 12.4145 46.5543 12.4145L44.4873 12.4145L43.6896 10.5057Z" id="Shape" fill="#4788C7" fill-rule="evenodd" stroke="none" />
      </g>
    </g>
  </g>
</svg>