<?xml version="1.0" encoding="utf-8"?>
<svg width="78px" height="61px" viewBox="0 0 78 61" version="1.1" xmlns:xlink="http://www.w3.org/1999/xlink" xmlns="http://www.w3.org/2000/svg">
  <desc>Created with Lunacy</desc>
  <g id="icons8_in_transit_2" transform="translate(6 4)">
    <g id="Group" transform="translate(37.56665 9.799988)">
      <path d="M0 31.0333L0 0L17.5763 0C18.4812 0 19.3093 0.496533 19.7339 1.2936L25.4571 11.9838C25.8998 12.8102 26.1333 13.7429 26.1333 14.6804L26.1333 31.0333L0 31.0333L0 31.0333Z" transform="translate(0.8166665 0.8166666)" id="Shape" fill="#98CCFD" stroke="none" />
      <g id="Group">
        <path d="M0 0L18.3913 0C19.5967 0 20.7041 0.663134 21.2725 1.7248L26.9941 12.4133C27.5004 13.3623 27.7667 14.4207 27.7667 15.4971L27.7667 32.6667L0 32.6667L0 0ZM19.8319 2.49573C19.5461 1.96327 18.994 1.63333 18.3913 1.63333L1.63333 1.63333L1.63333 31.0333L26.1333 31.0333L26.1333 15.4971C26.1333 14.6935 25.9324 13.8931 25.5535 13.1843L19.8319 2.49573Z" id="Shape" fill="#4788C7" fill-rule="evenodd" stroke="none" />
      </g>
    </g>
    <g id="Group" transform="translate(47.3667 14.70001)">
      <path d="M3.26667 0C1.46183 0 0 1.46183 0 3.26667L0 6.53333C0 8.33817 1.46183 9.8 3.26667 9.8L4.9 9.8L8.16667 13.0667L17.9667 13.0667L17.9667 10.5971C17.9667 9.5207 17.7004 8.4623 17.1941 7.51333L13.1712 0L3.26667 0L3.26667 0Z" id="Shape" fill="#EEEEEE" stroke="none" />
    </g>
    <g id="Group" transform="translate(1.633301 0)">
      <path d="M0 0L35.9333 0L35.9333 40.8333L0 40.8333L0 0Z" transform="translate(0.8166665 0.8166665)" id="Rectangle" fill="#DFF0FE" stroke="none" />
      <g id="Group">
        <path d="M0 0L37.5667 0L37.5667 42.4667L0 42.4667L0 0ZM35.9333 40.8333L35.9333 1.63333L1.63333 1.63333L1.63333 40.8333L35.9333 40.8333Z" id="Shape" fill="#4788C7" fill-rule="evenodd" stroke="none" />
      </g>
    </g>
    <g id="Group" transform="translate(9.800049 35.93335)">
      <path d="M0 5.71667C0 2.55944 2.55944 0 5.71667 0C8.87389 0 11.4333 2.55944 11.4333 5.71667C11.4333 8.87389 8.87389 11.4333 5.71667 11.4333C2.55944 11.4333 0 8.87389 0 5.71667Z" transform="translate(0.8166665 0.8166666)" id="Circle" fill="#B6DCFE" stroke="none" />
      <g id="Group">
        <path d="M0 6.53333C0 2.9253 2.9253 0 6.53333 0C10.1414 0 13.0667 2.9253 13.0667 6.53333C13.0667 10.1414 10.1414 13.0667 6.53333 13.0667C2.9253 13.0667 0 10.1414 0 6.53333ZM11.4333 6.53333C11.4333 3.8318 9.23487 1.63333 6.53333 1.63333C3.8318 1.63333 1.63333 3.8318 1.63333 6.53333C1.63333 9.23487 3.8318 11.4333 6.53333 11.4333C9.23487 11.4333 11.4333 9.23487 11.4333 6.53333Z" id="Shape" fill="#4788C7" fill-rule="evenodd" stroke="none" />
      </g>
    </g>
    <g id="Group" transform="translate(37.56665 9.799988)">
      <g id="Group">
        <path d="M0 0L18.3913 0C19.5967 0 20.7041 0.663134 21.2725 1.7248L26.9941 12.4133C27.5004 13.3623 27.7667 14.4207 27.7667 15.4971L27.7667 32.6667L0 32.6667L0 0ZM19.8319 2.49573C19.5461 1.96327 18.994 1.63333 18.3913 1.63333L1.63333 1.63333L1.63333 31.0333L26.1333 31.0333L26.1333 15.4971C26.1333 14.6935 25.9324 13.8931 25.5535 13.1843L19.8319 2.49573Z" id="Shape" fill="#4788C7" fill-rule="evenodd" stroke="none" />
      </g>
    </g>
    <g id="Group" transform="translate(44.09998 35.93335)">
      <path d="M0 5.71667C0 2.55944 2.55944 0 5.71667 0C8.87389 0 11.4333 2.55944 11.4333 5.71667C11.4333 8.87389 8.87389 11.4333 5.71667 11.4333C2.55944 11.4333 0 8.87389 0 5.71667Z" transform="translate(0.816668 0.8166666)" id="Circle" fill="#B6DCFE" stroke="none" />
      <g id="Group">
        <path d="M0 6.53333C0 2.9253 2.9253 0 6.53333 0C10.1414 0 13.0667 2.9253 13.0667 6.53333C13.0667 10.1414 10.1414 13.0667 6.53333 13.0667C2.9253 13.0667 0 10.1414 0 6.53333ZM11.4333 6.53333C11.4333 3.8318 9.23487 1.63333 6.53334 1.63333C3.8318 1.63333 1.63334 3.8318 1.63334 6.53333C1.63334 9.23487 3.8318 11.4333 6.53334 11.4333C9.23487 11.4333 11.4333 9.23487 11.4333 6.53333Z" id="Shape" fill="#4788C7" fill-rule="evenodd" stroke="none" />
      </g>
    </g>
    <path d="M20.4167 1.63334L0.816667 1.63334C0.365867 1.63334 0 1.26747 0 0.816668L0 0.816668C0 0.365867 0.365867 0 0.816667 0L20.4167 0C20.8675 0 21.2333 0.365867 21.2333 0.816668L21.2333 0.816668C21.2333 1.26747 20.8675 1.63334 20.4167 1.63334L20.4167 1.63334Z" id="Shape" fill="#4788C7" stroke="none" />
    <path d="M0 0L3.26666 0L3.26666 32.6667L0 32.6667L0 0Z" transform="translate(1.633301 1.633362)" id="Rectangle" fill="#DFF0FE" stroke="none" />
    <path d="M4.9 4.9L2.45 4.9C1.0976 4.9 0 3.8024 0 2.45L0 2.45C0 1.0976 1.0976 0 2.45 0L4.9 0L4.9 4.9L4.9 4.9Z" transform="translate(58.80005 31.03333)" id="Shape" fill="#EEEEEE" stroke="none" />
    <path d="M17.15 1.63333L0.816667 1.63333C0.365867 1.63333 0 1.26747 0 0.816667L0 0.816667C0 0.365867 0.365867 0 0.816667 0L17.15 0C17.6008 0 17.9667 0.365867 17.9667 0.816667L17.9667 0.816667C17.9667 1.26747 17.6008 1.63333 17.15 1.63333L17.15 1.63333Z" transform="translate(0 6.533325)" id="Shape" fill="#4788C7" stroke="none" />
    <path d="M13.8833 1.63333L0.816667 1.63333C0.365867 1.63333 0 1.26747 0 0.816667L0 0.816667C0 0.365867 0.365867 0 0.816667 0L13.8833 0C14.3341 0 14.7 0.365867 14.7 0.816667L14.7 0.816667C14.7 1.26747 14.3341 1.63333 13.8833 1.63333L13.8833 1.63333Z" transform="translate(0 13.06665)" id="Shape" fill="#4788C7" stroke="none" />
    <path d="M10.6167 1.63333L0.816666 1.63333C0.365867 1.63333 0 1.26746 0 0.816667L0 0.816667C0 0.365868 0.365867 0 0.816666 0L10.6167 0C11.0675 0 11.4333 0.365868 11.4333 0.816667L11.4333 0.816667C11.4333 1.26746 11.0675 1.63333 10.6167 1.63333L10.6167 1.63333Z" transform="translate(0 19.59998)" id="Shape" fill="#4788C7" stroke="none" />
    <path d="M7.35 1.63333L0.816666 1.63333C0.365867 1.63333 0 1.26746 0 0.816667L0 0.816667C0 0.365868 0.365867 0 0.816666 0L7.35 0C7.8008 0 8.16666 0.365868 8.16666 0.816667L8.16666 0.816667C8.16666 1.26746 7.8008 1.63333 7.35 1.63333L7.35 1.63333Z" transform="translate(0 26.13336)" id="Shape" fill="#4788C7" stroke="none" />
    <path d="M0.816667 4.9L0.816667 4.9C1.26583 4.9 1.63333 4.5325 1.63333 4.08333L1.63333 0.816667C1.63333 0.367501 1.26583 0 0.816667 0L0.816667 0C0.3675 0 0 0.367501 0 0.816667L0 4.08333C0 4.5325 0.3675 4.9 0.816667 4.9L0.816667 4.9Z" transform="translate(1.633301 32.66669)" id="Shape" fill="#4788C7" stroke="none" />
  </g>
</svg>