<svg xmlns="http://www.w3.org/2000/svg" viewBox="0 0 40 40" width="40px" height="40px"><path fill="#b6dcfe" d="M7.5,38.5v-28H13c15.02,0,20.625-1.75,22.5-2.635v28.766c-1.414,0.403-7.591,1.869-22.552,1.869H7.5 z"/><path fill="#4788c7" d="M35,8.626v27.623C33.098,36.736,26.825,38,12.948,38H8V11h5C26.509,11,32.48,9.6,35,8.626 M36,7 c0,0-3.29,3-23,3H7v29h5.948C30.557,39,36,37,36,37V7L36,7z"/><path fill="#b6dcfe" d="M7.5,37.89V8.5H10c14.942,0,20.578-2.292,22.5-3.486v29.745c-0.815,0.561-5.481,3.132-22.5,3.132 H7.5z"/><path fill="#4788c7" d="M32,5.874v28.608c-1.192,0.694-6.233,2.908-22,2.908H8V9h2C23.412,9,29.42,7.176,32,5.874 M33,4 c0,0-3.236,4-23,4H7v30.39h3c19.704,0,23-3.39,23-3.39V4L33,4z"/><path fill="#dff0fe" d="M6,38.5c-0.827,0-1.5-0.673-1.5-1.5V7c0-0.827,0.673-1.5,1.5-1.5h3 c13.68-0.096,18.705-2.122,20.5-3.357v29.66C28.585,32.745,22.437,38.5,9,38.5H6z"/><path fill="#4788c7" d="M29,3.026V31.6C27.771,32.811,21.76,38,9,38H6c-0.551,0-1-0.449-1-1V7c0-0.551,0.449-1,1-1h1 l2.007,0C21.111,5.915,26.563,4.323,29,3.026 M30,1c0,0-2.138,3.868-21,4H7H6C4.895,5,4,5.895,4,7v30c0,1.105,0.895,2,2,2h3 c15,0,21-7,21-7V1L30,1z"/><path fill="#b6dcfe" d="M9,38V6L7,6H6C5.449,6,5,6.449,5,7v30c0,0.551,0.449,1,1,1H9z"/><path fill="#98ccfd" d="M18 11A2 2.667 0 1 0 18 16.334 2 2.667 0 1 0 18 11zM24 22c-2.698 2.58-6.954 3-11 3 0-4.691 2.174-7.037 5.283-7.037S23.062 19.596 24 22z"/><path fill="none" stroke="#98ccfd" stroke-linecap="round" stroke-miterlimit="10" d="M23.5,26.5c-4.565,2.262-10,2-10,2"/></svg>