<svg xmlns="http://www.w3.org/2000/svg" viewBox="0 0 40 40" width="40px" height="40px"><path fill="#98ccfd" d="M1.5 32.5H38.5V35.5H1.5z"/><path fill="#4788c7" d="M38,33v2H2v-2H38 M39,32H1v4h38V32L39,32z"/><path fill="#dff0fe" d="M1.5 32.5L1.5 32.207 5.207 28.5 34.793 28.5 38.5 32.207 38.5 32.5z"/><path fill="#4788c7" d="M34.586,29l3,3H2.414l3-3H34.586 M35,28H5l-4,4v1h38v-1L35,28L35,28z"/><path fill="#fff" d="M5.5,28.5V19c0-7.995,6.505-14.5,14.5-14.5S34.5,11.005,34.5,19v9.5H5.5z"/><path fill="#4788c7" d="M20,5c7.72,0,14,6.28,14,14v9H6v-9C6,11.28,12.28,5,20,5 M20,4L20,4C11.716,4,5,10.716,5,19v10h30 V19C35,10.716,28.284,4,20,4L20,4z"/><g><path fill="#dff0fe" d="M9.5,28.5V19c0-5.79,4.71-10.5,10.5-10.5S30.5,13.21,30.5,19v9.5H9.5z"/><path fill="#4788c7" d="M20,9c5.514,0,10,4.486,10,10v9H10v-9C10,13.486,14.486,9,20,9 M20,8L20,8C13.925,8,9,12.925,9,19 v10h22V19C31,12.925,26.075,8,20,8L20,8z"/></g><g><path fill="#b6dcfe" d="M13.5,28.5V19c0-3.584,2.916-6.5,6.5-6.5s6.5,2.916,6.5,6.5v9.5H13.5z"/><path fill="#4788c7" d="M20,13c3.308,0,6,2.692,6,6v9H14v-9C14,15.692,16.692,13,20,13 M20,12L20,12c-3.866,0-7,3.134-7,7 v10h14V19C27,15.134,23.866,12,20,12L20,12z"/></g><g><path fill="#98ccfd" d="M17.5,28.5V19c0-1.378,1.122-2.5,2.5-2.5s2.5,1.122,2.5,2.5v9.5H17.5z"/><path fill="#4788c7" d="M20,17c1.103,0,2,0.897,2,2v9h-4v-9C18,17.897,18.897,17,20,17 M20,16c-1.657,0-3,1.343-3,3v10h6 V19C23,17.343,21.657,16,20,16L20,16z"/></g></svg>