<?xml version="1.0" encoding="utf-8"?>
<svg width="72px" height="69px" viewBox="0 0 72 69" version="1.1" xmlns:xlink="http://www.w3.org/1999/xlink" xmlns="http://www.w3.org/2000/svg">
  <desc>Created with Lunacy</desc>
  <g id="icons8_arena_1" transform="translate(6.5 4.5)">
    <g id="Group" transform="translate(42.69739 6.210571)">
      <path d="M1.55263 11.2007L1.55263 0" id="Line" fill="none" stroke="#4788C7" stroke-width="1" />
    </g>
    <g id="Group" transform="translate(6.986816 6.210571)">
      <path d="M1.55263 12.7533L1.55263 0" id="Line" fill="none" stroke="#4788C7" stroke-width="1" />
    </g>
    <g id="Group" transform="translate(25.61841 1.552612)">
      <path d="M1.55263 12.7533L1.55263 0" id="Line" fill="none" stroke="#4788C7" stroke-width="1" />
    </g>
    <g id="Group" transform="translate(0 13.97363)">
      <path d="M0 40.3684L0 7.36103C1.61474 6.136 10.6029 0 28.7237 0C46.9003 0 55.8419 6.13289 57.4474 7.35947L57.4474 40.3684L0 40.3684L0 40.3684Z" transform="translate(0.7763158 0.7763153)" id="Shape" fill="#DFF0FE" stroke="none" />
      <g id="Group">
        <path d="M0 7.76316C0 7.76316 8.88105 0 29.5 0C50.1189 0 59 7.76316 59 7.76316L59 41.9211L0 41.9211L0 7.76316ZM57.4474 8.53016C55.2892 6.98839 46.4703 1.55263 29.5 1.55263C12.4335 1.55263 3.69837 6.97597 1.55263 8.52395L1.55263 40.3684L57.4474 40.3684L57.4474 8.53016Z" id="Shape" fill="#4788C7" fill-rule="evenodd" stroke="none" />
      </g>
    </g>
    <g id="Group" transform="translate(20.1842 38.8158)">
      <path d="M9.31579 0L9.31579 0C4.17037 0 0 4.17037 0 9.31579L0 15.5263L18.6316 15.5263L18.6316 9.31579C18.6316 4.17037 14.4612 0 9.31579 0L9.31579 0Z" id="Shape" fill="#98CCFD" stroke="none" />
    </g>
    <g id="Group" transform="translate(6.21051 38.8158)">
      <path d="M0 0L7.76316 0L7.76316 10.8684L0 10.8684L0 0Z" id="Rectangle" fill="#98CCFD" stroke="none" />
    </g>
    <g id="Group" transform="translate(45.02631 38.8158)">
      <path d="M0 0L7.76316 0L7.76316 10.8684L0 10.8684L0 0Z" id="Rectangle" fill="#98CCFD" stroke="none" />
    </g>
    <g id="Group" transform="translate(6.21051 21.77258)">
      <g id="Group" transform="translate(12.42105 2.961413E-06)">
        <path d="M7.76316 0C4.94824 0.0558936 2.36155 0.249973 0 0.552738L0 12.3853L7.76316 12.3853L7.76316 0L7.76316 0Z" id="Shape" fill="#98CCFD" stroke="none" />
      </g>
      <g id="Group" transform="translate(0 1.324397)">
        <path d="M7.76316 0C4.69826 0.636579 2.12245 1.42687 0 2.24045L0 11.0609L7.76316 11.0609L7.76316 0L7.76316 0Z" id="Shape" fill="#98CCFD" stroke="none" />
      </g>
      <g id="Group" transform="translate(38.81579 1.324397)">
        <path d="M0 0L0 11.0609L7.76316 11.0609L7.76316 2.24045C5.64071 1.42687 3.0649 0.636579 0 0L0 0Z" id="Shape" fill="#98CCFD" stroke="none" />
      </g>
      <g id="Group" transform="translate(26.39474 0)">
        <path d="M7.76316 0.552738C5.40161 0.249976 2.81492 0.0558966 0 0L0 12.3853L7.76316 12.3853L7.76316 0.552738L7.76316 0.552738Z" id="Shape" fill="#98CCFD" stroke="none" />
      </g>
    </g>
    <g id="Group" transform="translate(26.39471 0)">
      <path d="M2.81803 6.47447C1.96874 6.47447 1.02318 6.41547 0 6.30058L0 1.55263L0.644343 1.55263C2.04016 2.03395 3.29624 2.26684 4.484 2.26684C6.62974 2.26684 8.10784 1.47811 9.29405 0.843079C10.1775 0.372632 10.8746 0 11.6447 0C13.1803 0 14.5513 0.669184 15.5543 1.357C12.494 1.36787 11.1308 2.61929 9.81263 3.82724C8.39353 5.12989 6.92629 6.47447 2.81803 6.47447L2.81803 6.47447Z" transform="translate(0.7763163 0.7763161)" id="Shape" fill="#98CCFD" stroke="none" />
      <g id="Group">
        <path d="M5.26032 2.26839C8.75684 2.26839 10.2365 0 12.4211 0C15.9781 0 18.6316 3.10526 18.6316 3.10526C17.773 2.97018 17.0277 2.90963 16.3709 2.90963C10.3359 2.90963 11.7907 8.0271 3.59434 8.0271C2.56029 8.0271 1.37408 7.94637 0 7.76316L0 1.55263L1.55263 1.55263C3.01366 2.0681 4.22471 2.26839 5.26032 2.26839ZM13.688 1.72187C13.2843 1.61629 12.8589 1.55263 12.4211 1.55263C11.845 1.55263 11.224 1.8849 10.4352 2.30566C9.1714 2.98105 7.60013 3.82103 5.25876 3.82103C4.09584 3.82103 2.87858 3.61453 1.55108 3.19066L1.55108 6.37355C2.28237 6.44032 2.96553 6.47292 3.59279 6.47292C7.39984 6.47292 8.63418 5.34105 10.0626 4.03063C11.0051 3.16737 12.0313 2.22492 13.688 1.72187Z" id="Shape" fill="#4788C7" fill-rule="evenodd" stroke="none" />
      </g>
    </g>
    <g id="Group" transform="translate(43.47369 4.657837)">
      <path d="M0 1.55263L0.617948 1.55263C1.16913 1.77621 1.71876 1.88489 2.29479 1.88489C3.52137 1.88489 4.59268 1.38184 5.62984 0.894316C6.60955 0.434737 7.53647 0 8.53947 0C10.2241 0 11.7068 0.945553 12.7207 1.82434C12.4335 1.80726 12.1618 1.79795 11.9025 1.79795C9.15586 1.79795 8.20255 2.78853 7.28028 3.7465C6.22139 4.84731 5.02742 6.08631 0 6.20276L0 1.55263L0 1.55263Z" transform="translate(0.7763153 0.7763175)" id="Shape" fill="#DFF0FE" stroke="none" />
      <g id="Group">
        <path d="M3.07111 1.88489C5.21684 1.88489 7.00547 0 9.31579 0C12.8729 0 15.5263 3.61297 15.5263 3.61297C14.3743 3.43131 13.4442 3.35213 12.6788 3.35213C6.98839 3.35213 10.4539 7.76315 0 7.76315L0 1.55263L1.55263 1.55263C2.08363 1.78863 2.58668 1.88489 3.07111 1.88489ZM11.0423 1.92992C10.5035 1.70013 9.92131 1.55264 9.31578 1.55264C8.48513 1.55264 7.63584 1.95166 6.73531 2.37398C5.67331 2.87237 4.47002 3.43753 3.0711 3.43753C2.55873 3.43753 2.05102 3.3599 1.55263 3.20774L1.55263 6.17482C5.58326 5.97298 6.55521 4.96532 7.49765 3.98561C8.28484 3.16737 9.15741 2.26219 11.0423 1.92992Z" id="Shape" fill="#4788C7" fill-rule="evenodd" stroke="none" />
      </g>
    </g>
    <g id="Group" transform="translate(7.763184 4.657837)">
      <path d="M0 1.55263L0.617947 1.55263C1.16913 1.77621 1.71876 1.88489 2.29479 1.88489C3.52137 1.88489 4.59268 1.38184 5.62984 0.894316C6.60955 0.434737 7.53647 0 8.53947 0C10.2241 0 11.7068 0.945553 12.7207 1.82434C12.4335 1.80726 12.1618 1.79795 11.9025 1.79795C9.15586 1.79795 8.20255 2.78853 7.28029 3.7465C6.22139 4.84731 5.02742 6.08631 0 6.20276L0 1.55263L0 1.55263Z" transform="translate(0.7763147 0.7763175)" id="Shape" fill="#B6DCFE" stroke="none" />
      <g id="Group">
        <path d="M3.07111 1.88489C5.21684 1.88489 7.00547 0 9.31579 0C12.8729 0 15.5263 3.61297 15.5263 3.61297C14.3743 3.43131 13.4442 3.35213 12.6788 3.35213C6.98839 3.35213 10.4539 7.76315 0 7.76315L0 1.55263L1.55263 1.55263C2.08363 1.78863 2.58668 1.88489 3.07111 1.88489ZM11.0423 1.92992C10.5035 1.70013 9.92131 1.55264 9.31579 1.55264C8.48513 1.55264 7.63584 1.95166 6.73531 2.37398C5.67331 2.87237 4.47002 3.43753 3.0711 3.43753C2.55873 3.43753 2.05102 3.3599 1.55263 3.20774L1.55263 6.17482C5.58326 5.97298 6.55521 4.96376 7.49765 3.98561C8.28484 3.16737 9.15742 2.26219 11.0423 1.92992Z" id="Shape" fill="#4788C7" fill-rule="evenodd" stroke="none" />
      </g>
    </g>
  </g>
</svg>