<?xml version="1.0" encoding="utf-8"?>
<!-- Generator: Adobe Illustrator 22.1.0, SVG Export Plug-In . SVG Version: 6.00 Build 0)  -->
<svg version="1.1" id="Layer_1" xmlns:sketch="http://www.bohemiancoding.com/sketch/ns"
	 xmlns="http://www.w3.org/2000/svg" xmlns:xlink="http://www.w3.org/1999/xlink" x="0px" y="0px" viewBox="0 0 16.5 33"
	 style="enable-background:new 0 0 16.5 33;" xml:space="preserve">
<style type="text/css">
	.st0{fill:#FFFFFF;}
</style>
<title>ticketmaster_logo</title>
<desc>Created with Sketch.</desc>
<path id="Fill-1" class="st0" d="M1.2,10.3h4l1-4.4l5.9-2l-1.4,6.3h5l-0.9,4.1h-5l-2,9.3c-0.1,0.5-0.3,1.2-0.3,2.1
	c0,1.3,0.9,2.1,2.1,2.1c1,0,2-0.2,2.7-0.5l-0.9,4.3c-1,0.2-2,0.5-3,0.5c-3.8,0-6.4-1.5-6.4-5.6c0-1.7,0.3-3.3,0.7-5l1.6-7.2h-4
	C0.3,14.4,1.2,10.3,1.2,10.3z"/>
</svg>
