<?xml version="1.0" encoding="utf-8"?>
<!-- Generator: Adobe Illustrator 23.0.2, SVG Export Plug-In . SVG Version: 6.00 Build 0)  -->
<svg version="1.1" id="Layer_1" xmlns:sketch="http://www.bohemiancoding.com/sketch/ns"
	 xmlns="http://www.w3.org/2000/svg" xmlns:xlink="http://www.w3.org/1999/xlink" x="0px" y="0px" viewBox="0 0 222.9 33"
	 style="enable-background:new 0 0 222.9 33;" xml:space="preserve">
<style type="text/css">
	.st0{fill:#FFFFFF;}
</style>
<title>ticketmaster_logo</title>
<desc>Created with Sketch.</desc>
<g id="Page-1" sketch:type="MSPage">
	<g id="ticketmaster_logo" sketch:type="MSLayerGroup">
		<g id="Imported-Layers" sketch:type="MSShapeGroup">
			<path id="Fill-1" class="st0" d="M144.6,28.4L144.6,28.4c-2,2.4-3.9,3.8-6.9,3.8c-3.8,0-6.6-2.2-6.6-6.1c0-7,7.8-7.6,13-7.6h1.9
				c0.2-0.6,0.2-1.2,0.2-1.8c0-2.2-2.3-2.8-4.2-2.8c-2.4,0-4.8,0.6-7,1.7l0.8-4.4c2.4-0.8,4.8-1.3,7.2-1.3c4.2,0,8.2,1.6,8.2,6.6
				c0,2.9-2.1,11.2-2.6,15.3H144L144.6,28.4L144.6,28.4z M139.2,28.1c4.1,0,5.4-2.9,6.3-6.3h-1.9c-2.7,0-7.1,0.5-7.1,4.1
				C136.4,27.4,137.8,28.1,139.2,28.1z M1.2,10.3h4l1-4.4l5.9-2l-1.4,6.3h5l-0.9,4.1h-5l-2,9.3c-0.1,0.5-0.3,1.2-0.3,2.1
				c0,1.3,0.9,2.1,2.1,2.1c1,0,2-0.2,2.7-0.5l-0.9,4.3c-1,0.2-2,0.5-3,0.5c-3.8,0-6.4-1.5-6.4-5.6c0-1.7,0.3-3.3,0.7-5l1.6-7.2h-4
				C0.3,14.4,1.2,10.3,1.2,10.3z M18,10.3h5.5L19,31.7h-5.5L18,10.3z M20,1.1h5.5l-1.2,5.3h-5.5L20,1.1z M40.2,15.2
				c-1.1-0.7-2.5-1.1-4-1.1c-4.4,0-6.9,4.1-6.9,8.2c0,2.8,0.9,5.6,4.7,5.6c1.4,0,3.1-0.4,4.5-1.1l-0.6,4.4c-1.7,0.8-3.5,1-5.3,1
				c-5.5,0-9-3.7-9-9.2c0-7.5,4.9-13.1,12.5-13.1c2.1,0,4,0.4,5.5,0.8C41.6,10.7,40.2,15.2,40.2,15.2z M46.3,0.6h5.5l-3.7,17.5h0.1
				l7.7-7.8h7.2L52.9,20l6.4,11.6h-6.2l-5.5-11.3h-0.1l-2.4,11.3h-5.4C39.7,31.7,46.3,0.6,46.3,0.6z M83.1,10.3h4l1-4.4L94,4
				l-1.4,6.3h5l-0.9,4.1h-5l-2,9.3c-0.1,0.5-0.2,1.2-0.2,2.1c0,1.3,0.9,2.1,2.1,2.1c1,0,2-0.2,2.7-0.5l-1,4.3c-0.9,0.2-2,0.5-3,0.5
				c-3.8,0-6.4-1.5-6.4-5.6c0-1.7,0.3-3.3,0.7-5l1.6-7.2h-4C82.2,14.4,83.1,10.3,83.1,10.3z M81.2,17.9c0-5.4-3.5-8.1-8.7-8.1
				c-7,0-12.1,6.4-12.1,13c0,6.3,4.1,9.3,10.2,9.3c2.3,0,4.6-0.5,6.8-1.2l0.7-4.4c-2.1,1-4.2,1.5-6.5,1.5c-3.5,0-5.6-1.3-5.9-4.6
				l0,0c0-0.2,0-0.4,0-0.6v-0.1c0,0,0,0,0-0.1l0,0c0-1.5,0.3-2.9,0.9-4.2c1.1-2.7,2.6-4.6,5.8-4.6c2.3,0,3.5,1.3,3.5,3.6
				c0,0.5,0,1-0.1,1.5h-7.6c-0.5,1.7-0.6,2.8-0.6,3.8h13C81,21.1,81.2,19.6,81.2,17.9z M99.9,12.7c0.2-0.8,0.3-1.7,0.5-2.4h5.2
				l-0.5,2.9h0.1c1.5-2.2,3.9-3.4,6.5-3.4c2.5,0,5.1,1.5,5.4,4.1h0.1c1.4-2.8,4.5-4.1,7.5-4.1c3.2,0,5.9,2.6,5.9,5.8
				c0,1.9-0.5,4.1-1,5.8l-2.2,10.2h-5.5l2.2-10.4c0.3-1.3,0.7-3.3,0.7-4.6c0-1.6-1.2-2.6-2.6-2.6c-3.8,0-4.8,4.5-5.5,7.4l-2.2,10.2
				H109l2.2-10.4c0.3-1.3,0.7-3.3,0.7-4.6c0-1.6-1.2-2.6-2.6-2.6c-3.8,0-4.8,4.5-5.5,7.4l-2.2,10.2H96C96,31.7,99.9,12.7,99.9,12.7z
				 M167.7,14.7c-0.6-0.3-2.1-0.8-3.7-0.8c-1.6,0-3.7,0.5-3.7,2.2c0,2.7,7.2,3.7,7.2,8.9c0,5.6-4.8,7.2-9.6,7.2
				c-2.2,0-4.4-0.3-6.5-1.3l1.2-4.4c1.6,0.9,3.1,1.7,5.3,1.7c1.9,0,3.8-0.6,3.8-2.4c0-3.4-7.2-3.8-7.2-9.1c0-5,4.8-6.8,9.2-6.8
				c2,0,4.1,0.4,5.2,0.7L167.7,14.7L167.7,14.7z M171.3,10.3h4l0.9-4.4l5.9-2l-1.4,6.3h4.9l-0.9,4.1h-5l-2,9.3
				c-0.1,0.5-0.2,1.2-0.2,2.1c0,1.3,0.9,2.1,2.1,2.1c1,0,2-0.2,2.7-0.5l-0.9,4.3c-0.9,0.2-2,0.5-3,0.5c-3.8,0-6.4-1.5-6.4-5.6
				c0-1.7,0.3-3.3,0.7-5l1.6-7.2h-4L171.3,10.3L171.3,10.3z M208.8,13.2c0.2-0.9,0.3-1.9,0.5-2.9h5.3l-0.8,4h0.1
				c1-2.3,3.7-4.5,6.3-4.5c0.7,0,1.4,0,2.1,0.2l-1.2,5.4c-0.6-0.2-1.4-0.3-2.1-0.3c-3.9,0-5.8,3.5-6.5,7l-2,9.6H205L208.8,13.2z
				 M204.9,17.9c0-5.4-3.5-8.1-8.7-8.1c-7,0-12.1,6.4-12.1,13c0,6.3,4.1,9.3,10.2,9.3c2.3,0,4.6-0.5,6.8-1.2l0.7-4.4
				c-2.1,1-4.2,1.5-6.5,1.5c-3.5,0-5.6-1.3-5.9-4.6l0,0c0-0.2,0-0.4,0-0.6v-0.1v-0.1c0-1.5,0.4-2.9,0.9-4.2c1.1-2.7,2.6-4.6,5.8-4.6
				c2.3,0,3.5,1.3,3.5,3.6c0,0.5,0,1-0.1,1.5h-7.6c-0.5,1.7-0.6,2.8-0.6,3.8h13C204.7,21.1,204.9,19.6,204.9,17.9L204.9,17.9z"/>
		</g>
	</g>
</g>
</svg>
