<svg width="440" height="63" viewBox="0 0 440 63" fill="none" xmlns="http://www.w3.org/2000/svg">
<g clip-path="url(#clip0_531_596)">
<path d="M285.683 55.1186H285.551C281.856 59.8684 278.03 62.5071 271.961 62.5071C264.441 62.5071 259.031 58.2851 259.031 50.5008C259.031 36.6473 274.468 35.5918 284.759 35.5918H288.585C288.849 34.4044 288.849 33.2169 288.849 32.0295C288.849 27.8075 284.231 26.6201 280.405 26.6201C275.655 26.6201 270.906 27.8075 266.552 29.9185L268.135 21.2106C272.753 19.6274 277.503 18.7038 282.384 18.7038C290.828 18.7038 298.745 21.7384 298.745 31.6337C298.745 37.307 294.523 53.7992 293.599 61.7155H284.363L285.683 55.1186ZM274.996 54.5909C283.176 54.5909 285.683 48.9175 287.398 42.1887H283.572C278.294 42.1887 269.454 43.1123 269.454 50.2369C269.454 53.0076 272.225 54.5909 274.996 54.5909Z" fill="white"/>
<path d="M2.28062 19.4957H10.1969L12.044 10.7878L23.7865 6.96161L21.1477 19.4957H30.9111L29.1959 27.5439H19.4325L15.4744 45.8832C15.2105 46.8068 14.9466 48.3901 14.9466 49.9733C14.9466 52.4801 16.6618 54.0634 19.1686 54.0634C21.1477 54.0634 23.1268 53.6676 24.4462 53.1398L22.599 61.5838C20.7519 61.9796 18.6409 62.5074 16.6618 62.5074C9.27332 62.5074 3.99581 59.6048 3.99581 51.5566C3.99581 48.2581 4.6555 45.0916 5.44713 41.7932L8.48169 27.5439H0.56543L2.28062 19.4957Z" fill="white"/>
<path d="M35.3985 19.4956H46.3494L37.3776 61.4518H26.4268L35.3985 19.4956ZM39.3567 1.4201H50.3075L48.0645 11.8432H37.1137L39.3567 1.4201Z" fill="white"/>
<path d="M79.3322 29.1269C77.2212 27.6756 74.3186 27.0159 71.284 27.0159C62.5761 27.0159 57.6944 35.196 57.6944 43.1123C57.6944 48.5217 59.5415 54.0631 66.93 54.0631C69.5688 54.0631 72.9992 53.2715 75.7699 51.9521L74.5824 60.66C71.284 62.2433 67.5897 62.6391 64.0274 62.6391C53.2085 62.6391 46.2158 55.3825 46.2158 44.5636C46.2158 29.9185 55.9792 18.7038 71.0201 18.7038C75.1102 18.7038 79.0683 19.4954 81.971 20.2871L79.3322 29.1269Z" fill="white"/>
<path d="M91.3401 0.36438H102.291L95.0343 34.8001H95.1662L110.471 19.4953H124.588L104.534 38.6263L117.068 61.5835H104.798L93.9788 39.286H93.8469L89.0971 61.5835H78.4102L91.3401 0.36438Z" fill="white"/>
<path d="M164.037 19.4957H171.954L173.801 10.7878L185.543 6.96161L182.905 19.4957H192.668L190.953 27.5439H181.189L177.231 45.8832C176.967 46.8068 176.703 48.3901 176.703 49.9733C176.703 52.4801 178.419 54.0634 180.925 54.0634C182.905 54.0634 184.884 53.6676 186.203 53.1398L184.356 61.5838C182.509 61.9796 180.398 62.5074 178.419 62.5074C171.03 62.5074 165.753 59.6048 165.753 51.5566C165.753 48.2581 166.412 45.0916 167.204 41.7932L170.239 27.5439H162.322L164.037 19.4957Z" fill="white"/>
<path d="M160.34 34.536C160.34 23.849 153.479 18.5715 143.188 18.5715C129.335 18.5715 119.308 31.1056 119.308 44.1675C119.308 56.7015 127.488 62.5068 139.494 62.5068C143.98 62.5068 148.598 61.4513 152.82 60.1319L154.271 51.424C150.181 53.2712 145.827 54.4586 141.341 54.4586C134.349 54.4586 130.258 51.9518 129.731 45.3549C129.731 44.9591 129.731 44.5633 129.731 44.1675C129.731 44.0355 129.731 44.0355 129.731 43.9036V43.7716C129.731 40.869 130.39 38.0983 131.446 35.4596C133.557 30.0501 136.46 26.3559 142.924 26.3559C147.542 26.3559 149.917 28.8627 149.917 33.3486C149.917 34.2721 149.785 35.1957 149.653 36.2512H134.744C133.821 39.5496 133.557 41.7926 133.557 43.7716H159.285C159.944 40.7371 160.34 37.7025 160.34 34.536Z" fill="white"/>
<path d="M197.418 24.1129C197.682 22.5297 198.078 20.8145 198.342 19.4951H208.501L207.577 25.1684H207.709C210.612 20.8145 215.493 18.5715 220.639 18.5715C225.653 18.5715 230.798 21.4742 231.326 26.6197H231.458C234.229 21.2103 240.298 18.5715 246.235 18.5715C252.568 18.5715 257.846 23.7171 257.846 30.0501C257.846 33.7444 256.922 38.0983 255.998 41.5287L251.644 61.5832H240.694L245.048 41.1329C245.575 38.6261 246.499 34.6679 246.499 32.1611C246.499 29.1266 244.124 27.1475 241.353 27.1475C233.701 27.1475 231.854 35.9873 230.534 41.6606L226.18 61.5832H215.23L219.584 41.1329C220.111 38.6261 221.035 34.6679 221.035 32.1611C221.035 29.1266 218.66 27.1475 215.889 27.1475C208.501 27.1475 206.39 35.9873 205.07 41.6606L200.716 61.5832H189.766L197.418 24.1129Z" fill="white"/>
<path d="M331.333 28.0714C330.146 27.4117 327.111 26.4881 324.077 26.4881C320.778 26.4881 316.688 27.4117 316.688 30.7101C316.688 35.9876 330.938 37.9667 330.938 48.2578C330.938 59.2087 321.438 62.5071 312.07 62.5071C307.716 62.5071 303.231 61.8474 299.272 60.0003L301.647 51.2924C304.682 53.0076 307.848 54.5909 312.07 54.5909C315.765 54.5909 319.591 53.4034 319.591 49.973C319.591 43.2442 305.342 42.5845 305.342 32.0295C305.342 22.1342 314.841 18.7038 323.549 18.7038C327.507 18.7038 331.597 19.4954 333.84 20.0232L331.333 28.0714Z" fill="white"/>
<path d="M338.328 19.4957H346.245L348.092 10.7878L359.834 6.96161L357.196 19.4957H366.959L365.244 27.5439H355.48L351.522 45.8832C351.258 46.8068 350.994 48.3901 350.994 49.9733C350.994 52.4801 352.71 54.0634 355.216 54.0634C357.196 54.0634 359.175 53.6676 360.494 53.1398L358.647 61.5838C356.8 61.9796 354.689 62.5074 352.71 62.5074C345.321 62.5074 340.044 59.6048 340.044 51.5566C340.044 48.2581 340.703 45.0916 341.363 41.7932L344.53 27.5439H336.613L338.328 19.4957Z" fill="white"/>
<path d="M412.475 25.1684C412.739 23.3213 413.134 21.4742 413.398 19.4951H423.821L422.37 27.4114H422.502C424.481 22.7935 429.89 18.5715 434.904 18.5715C436.355 18.5715 437.807 18.7035 439.126 18.9673L436.883 29.6543C435.696 29.2585 434.112 28.9946 432.661 28.9946C424.877 28.9946 421.183 35.9873 419.731 42.7161L415.773 61.5832H404.822L412.475 25.1684Z" fill="white"/>
<path d="M404.955 34.536C404.955 23.849 398.094 18.5715 387.803 18.5715C374.081 18.5715 363.922 31.1056 363.922 44.1675C363.922 56.7015 372.102 62.5068 384.108 62.5068C388.594 62.5068 393.212 61.4513 397.434 60.1319L398.885 51.424C394.795 53.2712 390.441 54.4586 385.955 54.4586C378.963 54.4586 374.873 51.9518 374.345 45.3549C374.345 44.9591 374.345 44.5633 374.345 44.1675C374.345 44.0355 374.345 44.0355 374.345 43.9036V43.7716C374.345 40.869 375.005 38.0983 376.06 35.4596C378.171 30.0501 381.074 26.3559 387.539 26.3559C392.157 26.3559 394.531 28.8627 394.531 33.3486C394.531 34.2721 394.399 35.1957 394.268 36.2512H379.359C378.435 39.5496 378.171 41.7926 378.171 43.7716H403.899C404.559 40.7371 404.955 37.7025 404.955 34.536Z" fill="white"/>
</g>
<defs>
<clipPath id="clip0_531_596">
<rect width="438.561" height="62.2746" fill="white" transform="translate(0.566406 0.36322)"/>
</clipPath>
</defs>
</svg>
