<svg width="14" height="15" viewBox="0 0 14 15" fill="none" xmlns="http://www.w3.org/2000/svg">
<circle cx="7" cy="7.5" r="7" fill="#E92434"/>
<path d="M6.26109 4.22031C7.29669 4.22031 8.22724 4.69332 8.8621 5.44278L8.99162 5.60457L8.81939 5.48582C8.34255 5.17912 7.78952 5.01644 7.22401 5.01896C5.63104 5.01896 4.33814 6.26945 4.33814 7.81522C4.33814 9.35901 5.63007 10.6105 7.22304 10.6105C7.85924 10.6133 8.47965 10.4071 8.99355 10.0219C8.34264 10.8959 7.33251 11.4087 6.26109 11.4091C4.34972 11.4091 2.80016 9.79995 2.80016 7.81522C2.80016 5.8295 4.34972 4.22031 6.26109 4.22031ZM9.61395 5.8295L9.94971 6.92541L11.0072 6.93532L10.1572 7.62398L10.4756 8.72683L9.61395 8.056L8.75233 8.72683L9.07073 7.62398L8.21974 6.93631L9.27721 6.9264L9.61395 5.8295Z" fill="white"/>
</svg>
